<?xml version="1.0" standalone="no"?>
<!DOCTYPE svg PUBLIC "-//W3C//DTD SVG 20010904//EN"
 "http://www.w3.org/TR/2001/REC-SVG-20010904/DTD/svg10.dtd">
<svg version="1.0" xmlns="http://www.w3.org/2000/svg"
 width="90.000000pt" height="90.000000pt" viewBox="0 0 90.000000 90.000000"
 preserveAspectRatio="xMidYMid meet">
<metadata>
Created by potrace 1.10, written by Peter Selinger 2001-2011
</metadata>
<g transform="translate(0.000000,90.000000) scale(0.100000,-0.100000)"
fill="#f75f28" stroke="none">
<path fill="#000000" style="background:#ffffff" d="M377 732 l-77 -119 -62 -16 c-35 -9 -94 -24 -133 -33 -38 -9 -72 -18
-74 -20 -2 -2 36 -52 83 -111 l87 -108 -6 -115 c-3 -63 -8 -128 -12 -144 -5
-25 -3 -28 13 -21 11 4 72 28 136 53 l116 45 128 -51 c70 -29 129 -50 130 -49
2 2 0 65 -4 140 l-7 136 91 108 91 107 -134 37 c-75 21 -139 41 -143 46 -4 4
-38 58 -75 118 -37 61 -69 111 -70 113 -1 1 -36 -51 -78 -116z m95 41 c10 -9
18 -21 19 -27 1 -17 92 -148 109 -157 8 -5 49 -18 90 -30 97 -27 130 -40 130
-48 0 -4 -8 -16 -18 -27 -9 -10 -43 -50 -76 -89 l-58 -70 6 -117 c6 -140 9
-138 -115 -83 -80 35 -134 43 -167 26 -28 -16 -149 -61 -162 -61 -9 0 -11 31
-10 112 2 62 2 118 1 125 0 7 -33 51 -71 99 -39 47 -70 90 -70 95 0 5 12 11
28 15 196 45 212 55 293 185 24 38 46 69 48 69 2 0 13 -7 23 -17z"/>
</g>
</svg>
